<svg fill="#030303" xmlns="http://www.w3.org/2000/svg"><path d="M12.475 14.1253L8.3333 11.5587V5.83366H9.99997V10.6337L13.3583 12.7087L12.475 14.1253ZM18.3333 10.0003C18.3333 14.592 14.5916 18.3337 9.99997 18.3337C5.4083 18.3337 1.66663 14.592 1.66663 10.0003H2.49997C2.49997 14.1337 5.86663 17.5003 9.99997 17.5003C14.1333 17.5003 17.5 14.1337 17.5 10.0003C17.5 5.86699 14.1333 2.50033 9.99997 2.50033C7.34163 2.50033 4.9333 3.86699 3.56663 6.15033C3.47497 6.30033 3.3833 6.45866 3.3083 6.61699C3.29997 6.63366 3.29163 6.65033 3.2833 6.66699H6.66663V7.50033H1.6333V2.50033H2.46663V6.45033C2.49997 6.37533 2.52497 6.30866 2.5583 6.24199C2.64997 6.05866 2.74997 5.89199 2.84997 5.71699C4.34997 3.21699 7.09163 1.66699 9.99997 1.66699C14.5916 1.66699 18.3333 5.40866 18.3333 10.0003Z"/></svg>